<svg xmlns="http://www.w3.org/2000/svg" viewBox="0 0 1200 750" role="img" aria-labelledby="title desc"><title id="title">Claymorphism and Soft 3D representative reconstruction</title><desc id="desc">Representative reconstruction of Claymorphism and Soft 3D, showing inflated shapes, soft, thick shadows, rounded corners.</desc>
    <defs>
      <linearGradient id="gradA" x1="0" y1="0" x2="1" y2="1"><stop offset="0" stop-color="#FF7A00"/><stop offset="1" stop-color="#A6E43F"/></linearGradient>
      <linearGradient id="gradB" x1="1" y1="0" x2="0" y2="1"><stop offset="0" stop-color="#A6E43F"/><stop offset="1" stop-color="#182335"/></linearGradient>
      <radialGradient id="radial"><stop offset="0" stop-color="#A6E43F"/><stop offset="1" stop-color="#FF7A00" stop-opacity="0"/></radialGradient>
      <filter id="shadowSoft"><feDropShadow dx="0" dy="15" stdDeviation="18" flood-color="#000000" flood-opacity="0.20"/></filter>
      <filter id="shadowHard"><feDropShadow dx="9" dy="9" stdDeviation="0" flood-color="#000000" flood-opacity="0.55"/></filter>
      <filter id="blur"><feGaussianBlur stdDeviation="18"/></filter>
      <filter id="noise"><feTurbulence type="fractalNoise" baseFrequency="0.8" numOctaves="3" seed="49"/><feColorMatrix type="saturate" values="0"/><feComponentTransfer><feFuncA type="table" tableValues="0 .18"/></feComponentTransfer></filter>
      <pattern id="grid" width="24" height="24" patternUnits="userSpaceOnUse"><path d="M 24 0 L 0 0 0 24" fill="none" stroke="#FF7A00" stroke-opacity=".22" stroke-width="1"/></pattern>
      <pattern id="checker" width="20" height="20" patternUnits="userSpaceOnUse"><rect width="10" height="10" fill="#FF7A00"/><rect x="10" y="10" width="10" height="10" fill="#FF7A00"/><rect x="10" width="10" height="10" fill="#A6E43F"/><rect y="10" width="10" height="10" fill="#A6E43F"/></pattern>
      <clipPath id="screenClip"><rect x="70" y="110" width="1060" height="570" rx="18"/></clipPath>
    </defs>
    <rect x="0" y="0" width="1200" height="750" rx="0" fill="#EAF5FF" stroke="none" stroke-width="0" opacity="1.0" /><line x1="0" y1="0" x2="0" y2="750" stroke="#1B74E4" stroke-width="1" opacity="0.035"/><line x1="60" y1="0" x2="60" y2="750" stroke="#1B74E4" stroke-width="1" opacity="0.035"/><line x1="120" y1="0" x2="120" y2="750" stroke="#1B74E4" stroke-width="1" opacity="0.035"/><line x1="180" y1="0" x2="180" y2="750" stroke="#1B74E4" stroke-width="1" opacity="0.035"/><line x1="240" y1="0" x2="240" y2="750" stroke="#1B74E4" stroke-width="1" opacity="0.035"/><line x1="300" y1="0" x2="300" y2="750" stroke="#1B74E4" stroke-width="1" opacity="0.035"/><line x1="360" y1="0" x2="360" y2="750" stroke="#1B74E4" stroke-width="1" opacity="0.035"/><line x1="420" y1="0" x2="420" y2="750" stroke="#1B74E4" stroke-width="1" opacity="0.035"/><line x1="480" y1="0" x2="480" y2="750" stroke="#1B74E4" stroke-width="1" opacity="0.035"/><line x1="540" y1="0" x2="540" y2="750" stroke="#1B74E4" stroke-width="1" opacity="0.035"/><line x1="600" y1="0" x2="600" y2="750" stroke="#1B74E4" stroke-width="1" opacity="0.035"/><line x1="660" y1="0" x2="660" y2="750" stroke="#1B74E4" stroke-width="1" opacity="0.035"/><line x1="720" y1="0" x2="720" y2="750" stroke="#1B74E4" stroke-width="1" opacity="0.035"/><line x1="780" y1="0" x2="780" y2="750" stroke="#1B74E4" stroke-width="1" opacity="0.035"/><line x1="840" y1="0" x2="840" y2="750" stroke="#1B74E4" stroke-width="1" opacity="0.035"/><line x1="900" y1="0" x2="900" y2="750" stroke="#1B74E4" stroke-width="1" opacity="0.035"/><line x1="960" y1="0" x2="960" y2="750" stroke="#1B74E4" stroke-width="1" opacity="0.035"/><line x1="1020" y1="0" x2="1020" y2="750" stroke="#1B74E4" stroke-width="1" opacity="0.035"/><line x1="1080" y1="0" x2="1080" y2="750" stroke="#1B74E4" stroke-width="1" opacity="0.035"/><line x1="1140" y1="0" x2="1140" y2="750" stroke="#1B74E4" stroke-width="1" opacity="0.035"/><line x1="1200" y1="0" x2="1200" y2="750" stroke="#1B74E4" stroke-width="1" opacity="0.035"/><line x1="0" y1="0" x2="1200" y2="0" stroke="#1B74E4" stroke-width="1" opacity="0.035"/><line x1="0" y1="60" x2="1200" y2="60" stroke="#1B74E4" stroke-width="1" opacity="0.035"/><line x1="0" y1="120" x2="1200" y2="120" stroke="#1B74E4" stroke-width="1" opacity="0.035"/><line x1="0" y1="180" x2="1200" y2="180" stroke="#1B74E4" stroke-width="1" opacity="0.035"/><line x1="0" y1="240" x2="1200" y2="240" stroke="#1B74E4" stroke-width="1" opacity="0.035"/><line x1="0" y1="300" x2="1200" y2="300" stroke="#1B74E4" stroke-width="1" opacity="0.035"/><line x1="0" y1="360" x2="1200" y2="360" stroke="#1B74E4" stroke-width="1" opacity="0.035"/><line x1="0" y1="420" x2="1200" y2="420" stroke="#1B74E4" stroke-width="1" opacity="0.035"/><line x1="0" y1="480" x2="1200" y2="480" stroke="#1B74E4" stroke-width="1" opacity="0.035"/><line x1="0" y1="540" x2="1200" y2="540" stroke="#1B74E4" stroke-width="1" opacity="0.035"/><line x1="0" y1="600" x2="1200" y2="600" stroke="#1B74E4" stroke-width="1" opacity="0.035"/><line x1="0" y1="660" x2="1200" y2="660" stroke="#1B74E4" stroke-width="1" opacity="0.035"/><line x1="0" y1="720" x2="1200" y2="720" stroke="#1B74E4" stroke-width="1" opacity="0.035"/><text x="55" y="58" font-family="Courier New, monospace" font-size="18" font-weight="700" fill="#1B74E4" text-anchor="start" opacity="1.0" letter-spacing="1.5">WDTC–0049</text><text x="1145" y="58" font-family="Courier New, monospace" font-size="16" font-weight="600" fill="#1B74E4" text-anchor="end" opacity="1.0" letter-spacing="0">2021–present</text><rect x="70" y="92" width="1060" height="590" rx="18" fill="#FFFFFF" stroke="#1B74E4" stroke-width="2" opacity="1.0" filter="url(#shadowSoft)"/><rect x="70" y="92" width="1060" height="42" rx="18" fill="#1B74E4" stroke="#1B74E4" stroke-width="0" opacity="1.0" /><rect x="70" y="122" width="1060" height="12" rx="0" fill="#1B74E4" stroke="none" stroke-width="0" opacity="1.0" /><circle cx="94" cy="113" r="6" fill="#FF6B5E" stroke="none" stroke-width="0" opacity="1" /><circle cx="116" cy="113" r="6" fill="#F3C84B" stroke="none" stroke-width="0" opacity="1" /><circle cx="138" cy="113" r="6" fill="#45BE6F" stroke="none" stroke-width="0" opacity="1" /><rect x="180" y="104" width="900" height="18" rx="9" fill="#FFFFFF" stroke="none" stroke-width="0" opacity="0.65" /><rect x="88" y="150" width="1024" height="514" rx="0" fill="#FFF3E9" stroke="none" stroke-width="0" opacity="1.0" /><text x="133" y="212" font-family="Arial, sans-serif" font-size="34" font-weight="800" fill="#4A2E39" text-anchor="start" opacity="1.0" letter-spacing="0">SOFT 3D, MADE FRIENDLY.</text><circle cx="388" cy="395" r="118" fill="#FF94B8" stroke="none" stroke-width="0" opacity="1" filter="url(#shadowSoft)"/><circle cx="358" cy="370" r="12" fill="#4A2E39" stroke="none" stroke-width="0" opacity="1" /><circle cx="418" cy="370" r="12" fill="#4A2E39" stroke="none" stroke-width="0" opacity="1" /><path d="M 348 420 Q 388 450 428 420" fill="none" stroke="#4A2E39" stroke-width="8" stroke-linecap="round"/><rect x="603" y="255" width="320" height="140" rx="55" fill="#95DCE0" stroke="none" stroke-width="0" opacity="1.0" filter="url(#shadowSoft)"/><rect x="658" y="430" width="250" height="130" rx="45" fill="#C3A6FF" stroke="none" stroke-width="0" opacity="1.0" filter="url(#shadowSoft)"/><circle cx="948" cy="450" r="82" fill="#FFE166" stroke="none" stroke-width="0" opacity="1" filter="url(#shadowSoft)"/><text x="763" y="338" font-family="Arial, sans-serif" font-size="31" font-weight="800" fill="#4A2E39" text-anchor="middle" opacity="1.0" letter-spacing="0">PLAY</text><text x="783" y="510" font-family="Arial, sans-serif" font-size="31" font-weight="800" fill="#4A2E39" text-anchor="middle" opacity="1.0" letter-spacing="0">LEARN</text><text x="55" y="723" font-family="Arial, sans-serif" font-size="23" font-weight="750" fill="#1B74E4" text-anchor="start" opacity="1.0" letter-spacing="0">Claymorphism and Soft 3D</text><text x="1145" y="723" font-family="Courier New, monospace" font-size="12" font-weight="700" fill="#1B74E4" text-anchor="end" opacity="0.72" letter-spacing="1.2">REPRESENTATIVE RECONSTRUCTION</text></svg>