<svg xmlns="http://www.w3.org/2000/svg" viewBox="0 0 1200 750" role="img" aria-labelledby="title desc"><title id="title">Cyber, Techno, and Y2K Futurism representative reconstruction</title><desc id="desc">Representative reconstruction of Cyber, Techno, and Y2K Futurism, showing black, dark blue, or metallic backgrounds, neon cyan, electric blue, lime green, violet, and silver, glowing lines and lens flares.</desc>
    <defs>
      <linearGradient id="gradA" x1="0" y1="0" x2="1" y2="1"><stop offset="0" stop-color="#00E5FF"/><stop offset="1" stop-color="#FF56D9"/></linearGradient>
      <linearGradient id="gradB" x1="1" y1="0" x2="0" y2="1"><stop offset="0" stop-color="#FF56D9"/><stop offset="1" stop-color="#F1F1FF"/></linearGradient>
      <radialGradient id="radial"><stop offset="0" stop-color="#FF56D9"/><stop offset="1" stop-color="#00E5FF" stop-opacity="0"/></radialGradient>
      <filter id="shadowSoft"><feDropShadow dx="0" dy="15" stdDeviation="18" flood-color="#000000" flood-opacity="0.20"/></filter>
      <filter id="shadowHard"><feDropShadow dx="9" dy="9" stdDeviation="0" flood-color="#000000" flood-opacity="0.55"/></filter>
      <filter id="blur"><feGaussianBlur stdDeviation="18"/></filter>
      <filter id="noise"><feTurbulence type="fractalNoise" baseFrequency="0.8" numOctaves="3" seed="3"/><feColorMatrix type="saturate" values="0"/><feComponentTransfer><feFuncA type="table" tableValues="0 .18"/></feComponentTransfer></filter>
      <pattern id="grid" width="24" height="24" patternUnits="userSpaceOnUse"><path d="M 24 0 L 0 0 0 24" fill="none" stroke="#00E5FF" stroke-opacity=".22" stroke-width="1"/></pattern>
      <pattern id="checker" width="20" height="20" patternUnits="userSpaceOnUse"><rect width="10" height="10" fill="#00E5FF"/><rect x="10" y="10" width="10" height="10" fill="#00E5FF"/><rect x="10" width="10" height="10" fill="#FF56D9"/><rect y="10" width="10" height="10" fill="#FF56D9"/></pattern>
      <clipPath id="screenClip"><rect x="70" y="110" width="1060" height="570" rx="18"/></clipPath>
    </defs>
    <rect x="0" y="0" width="1200" height="750" rx="0" fill="#09071A" stroke="none" stroke-width="0" opacity="1.0" /><line x1="0" y1="0" x2="0" y2="750" stroke="#C9FF3C" stroke-width="1" opacity="0.035"/><line x1="60" y1="0" x2="60" y2="750" stroke="#C9FF3C" stroke-width="1" opacity="0.035"/><line x1="120" y1="0" x2="120" y2="750" stroke="#C9FF3C" stroke-width="1" opacity="0.035"/><line x1="180" y1="0" x2="180" y2="750" stroke="#C9FF3C" stroke-width="1" opacity="0.035"/><line x1="240" y1="0" x2="240" y2="750" stroke="#C9FF3C" stroke-width="1" opacity="0.035"/><line x1="300" y1="0" x2="300" y2="750" stroke="#C9FF3C" stroke-width="1" opacity="0.035"/><line x1="360" y1="0" x2="360" y2="750" stroke="#C9FF3C" stroke-width="1" opacity="0.035"/><line x1="420" y1="0" x2="420" y2="750" stroke="#C9FF3C" stroke-width="1" opacity="0.035"/><line x1="480" y1="0" x2="480" y2="750" stroke="#C9FF3C" stroke-width="1" opacity="0.035"/><line x1="540" y1="0" x2="540" y2="750" stroke="#C9FF3C" stroke-width="1" opacity="0.035"/><line x1="600" y1="0" x2="600" y2="750" stroke="#C9FF3C" stroke-width="1" opacity="0.035"/><line x1="660" y1="0" x2="660" y2="750" stroke="#C9FF3C" stroke-width="1" opacity="0.035"/><line x1="720" y1="0" x2="720" y2="750" stroke="#C9FF3C" stroke-width="1" opacity="0.035"/><line x1="780" y1="0" x2="780" y2="750" stroke="#C9FF3C" stroke-width="1" opacity="0.035"/><line x1="840" y1="0" x2="840" y2="750" stroke="#C9FF3C" stroke-width="1" opacity="0.035"/><line x1="900" y1="0" x2="900" y2="750" stroke="#C9FF3C" stroke-width="1" opacity="0.035"/><line x1="960" y1="0" x2="960" y2="750" stroke="#C9FF3C" stroke-width="1" opacity="0.035"/><line x1="1020" y1="0" x2="1020" y2="750" stroke="#C9FF3C" stroke-width="1" opacity="0.035"/><line x1="1080" y1="0" x2="1080" y2="750" stroke="#C9FF3C" stroke-width="1" opacity="0.035"/><line x1="1140" y1="0" x2="1140" y2="750" stroke="#C9FF3C" stroke-width="1" opacity="0.035"/><line x1="1200" y1="0" x2="1200" y2="750" stroke="#C9FF3C" stroke-width="1" opacity="0.035"/><line x1="0" y1="0" x2="1200" y2="0" stroke="#C9FF3C" stroke-width="1" opacity="0.035"/><line x1="0" y1="60" x2="1200" y2="60" stroke="#C9FF3C" stroke-width="1" opacity="0.035"/><line x1="0" y1="120" x2="1200" y2="120" stroke="#C9FF3C" stroke-width="1" opacity="0.035"/><line x1="0" y1="180" x2="1200" y2="180" stroke="#C9FF3C" stroke-width="1" opacity="0.035"/><line x1="0" y1="240" x2="1200" y2="240" stroke="#C9FF3C" stroke-width="1" opacity="0.035"/><line x1="0" y1="300" x2="1200" y2="300" stroke="#C9FF3C" stroke-width="1" opacity="0.035"/><line x1="0" y1="360" x2="1200" y2="360" stroke="#C9FF3C" stroke-width="1" opacity="0.035"/><line x1="0" y1="420" x2="1200" y2="420" stroke="#C9FF3C" stroke-width="1" opacity="0.035"/><line x1="0" y1="480" x2="1200" y2="480" stroke="#C9FF3C" stroke-width="1" opacity="0.035"/><line x1="0" y1="540" x2="1200" y2="540" stroke="#C9FF3C" stroke-width="1" opacity="0.035"/><line x1="0" y1="600" x2="1200" y2="600" stroke="#C9FF3C" stroke-width="1" opacity="0.035"/><line x1="0" y1="660" x2="1200" y2="660" stroke="#C9FF3C" stroke-width="1" opacity="0.035"/><line x1="0" y1="720" x2="1200" y2="720" stroke="#C9FF3C" stroke-width="1" opacity="0.035"/><text x="55" y="58" font-family="Courier New, monospace" font-size="18" font-weight="700" fill="#C9FF3C" text-anchor="start" opacity="1.0" letter-spacing="1.5">WDTC–0003</text><text x="1145" y="58" font-family="Courier New, monospace" font-size="16" font-weight="600" fill="#C9FF3C" text-anchor="end" opacity="1.0" letter-spacing="0">1995–2003; revived in the 2020s</text><rect x="70" y="92" width="1060" height="590" rx="18" fill="#080A14" stroke="#C9FF3C" stroke-width="2" opacity="1.0" filter="url(#shadowSoft)"/><rect x="70" y="92" width="1060" height="42" rx="18" fill="#C9FF3C" stroke="#C9FF3C" stroke-width="0" opacity="1.0" /><rect x="70" y="122" width="1060" height="12" rx="0" fill="#C9FF3C" stroke="none" stroke-width="0" opacity="1.0" /><circle cx="94" cy="113" r="6" fill="#FF6B5E" stroke="none" stroke-width="0" opacity="1" /><circle cx="116" cy="113" r="6" fill="#F3C84B" stroke="none" stroke-width="0" opacity="1" /><circle cx="138" cy="113" r="6" fill="#45BE6F" stroke="none" stroke-width="0" opacity="1" /><rect x="180" y="104" width="900" height="18" rx="9" fill="#FFFFFF" stroke="none" stroke-width="0" opacity="0.65" /><rect x="88" y="150" width="1024" height="514" rx="0" fill="#050617" stroke="none" stroke-width="0" opacity="1.0" /><rect x="88" y="150" width="1024" height="514" rx="0" fill="url(#grid)" stroke="none" stroke-width="0" opacity="1.0" /><line x1="600.0" y1="448.12" x2="88.0" y2="664" stroke="#00E6FF" stroke-width="1" opacity="0.25"/><line x1="88" y1="150.0" x2="1112" y2="150.0" stroke="#00E6FF" stroke-width="1" opacity="0.12"/><line x1="600.0" y1="448.12" x2="181.0909090909091" y2="664" stroke="#00E6FF" stroke-width="1" opacity="0.25"/><line x1="88" y1="192.83333333333331" x2="1112" y2="192.83333333333331" stroke="#00E6FF" stroke-width="1" opacity="0.12"/><line x1="600.0" y1="448.12" x2="274.1818181818182" y2="664" stroke="#00E6FF" stroke-width="1" opacity="0.25"/><line x1="88" y1="235.66666666666666" x2="1112" y2="235.66666666666666" stroke="#00E6FF" stroke-width="1" opacity="0.12"/><line x1="600.0" y1="448.12" x2="367.27272727272725" y2="664" stroke="#00E6FF" stroke-width="1" opacity="0.25"/><line x1="88" y1="278.5" x2="1112" y2="278.5" stroke="#00E6FF" stroke-width="1" opacity="0.12"/><line x1="600.0" y1="448.12" x2="460.3636363636364" y2="664" stroke="#00E6FF" stroke-width="1" opacity="0.25"/><line x1="88" y1="321.3333333333333" x2="1112" y2="321.3333333333333" stroke="#00E6FF" stroke-width="1" opacity="0.12"/><line x1="600.0" y1="448.12" x2="553.4545454545455" y2="664" stroke="#00E6FF" stroke-width="1" opacity="0.25"/><line x1="88" y1="364.1666666666667" x2="1112" y2="364.1666666666667" stroke="#00E6FF" stroke-width="1" opacity="0.12"/><line x1="600.0" y1="448.12" x2="646.5454545454545" y2="664" stroke="#00E6FF" stroke-width="1" opacity="0.25"/><line x1="88" y1="407.0" x2="1112" y2="407.0" stroke="#00E6FF" stroke-width="1" opacity="0.12"/><line x1="600.0" y1="448.12" x2="739.6363636363636" y2="664" stroke="#00E6FF" stroke-width="1" opacity="0.25"/><line x1="88" y1="449.83333333333337" x2="1112" y2="449.83333333333337" stroke="#00E6FF" stroke-width="1" opacity="0.12"/><line x1="600.0" y1="448.12" x2="832.7272727272727" y2="664" stroke="#00E6FF" stroke-width="1" opacity="0.25"/><line x1="88" y1="492.66666666666663" x2="1112" y2="492.66666666666663" stroke="#00E6FF" stroke-width="1" opacity="0.12"/><line x1="600.0" y1="448.12" x2="925.8181818181819" y2="664" stroke="#00E6FF" stroke-width="1" opacity="0.25"/><line x1="88" y1="535.5" x2="1112" y2="535.5" stroke="#00E6FF" stroke-width="1" opacity="0.12"/><line x1="600.0" y1="448.12" x2="1018.9090909090909" y2="664" stroke="#00E6FF" stroke-width="1" opacity="0.25"/><line x1="88" y1="578.3333333333334" x2="1112" y2="578.3333333333334" stroke="#00E6FF" stroke-width="1" opacity="0.12"/><line x1="600.0" y1="448.12" x2="1112.0" y2="664" stroke="#00E6FF" stroke-width="1" opacity="0.25"/><line x1="88" y1="621.1666666666666" x2="1112" y2="621.1666666666666" stroke="#00E6FF" stroke-width="1" opacity="0.12"/><circle cx="845.76" cy="345.32" r="130" fill="url(#radial)" stroke="none" stroke-width="0" opacity="0.8" /><circle cx="845.76" cy="345.32" r="76" fill="none" stroke="#00E6FF" stroke-width="3" opacity="1" /><circle cx="845.76" cy="345.32" r="48" fill="none" stroke="#FF56D9" stroke-width="2" opacity="1" /><text x="136" y="295" font-family="Arial Black, sans-serif" font-size="62" font-weight="800" fill="#D8FFFF" text-anchor="start" opacity="1.0" letter-spacing="6">CYBERSPACE</text><text x="139" y="338" font-family="Courier New, monospace" font-size="18" font-weight="700" fill="#C9FF3C" text-anchor="start" opacity="1.0" letter-spacing="2">DIGITAL FRONTIER // NODE 1999</text><rect x="140" y="410" width="285" height="40" rx="0" fill="#08152D" stroke="#00E6FF" stroke-width="2" opacity="1.0" /><text x="160" y="437" font-family="Courier New, monospace" font-size="15" font-weight="700" fill="#00E6FF" text-anchor="start" opacity="1.0" letter-spacing="2">ENTER NETWORK</text><rect x="140" y="472" width="285" height="40" rx="0" fill="#08152D" stroke="#00E6FF" stroke-width="2" opacity="1.0" /><text x="160" y="499" font-family="Courier New, monospace" font-size="15" font-weight="700" fill="#00E6FF" text-anchor="start" opacity="1.0" letter-spacing="2">VIRTUAL SYSTEMS</text><rect x="140" y="534" width="285" height="40" rx="0" fill="#08152D" stroke="#00E6FF" stroke-width="2" opacity="1.0" /><text x="160" y="561" font-family="Courier New, monospace" font-size="15" font-weight="700" fill="#00E6FF" text-anchor="start" opacity="1.0" letter-spacing="2">DATA PORTAL</text><rect x="88" y="622" width="310" height="38" rx="2" fill="#09071A" stroke="#C9FF3C" stroke-width="2" opacity="0.96" /><text x="105" y="647" font-family="Courier New, monospace" font-size="13" font-weight="700" fill="#C9FF3C" text-anchor="start" opacity="1.0" letter-spacing="1.2">DETAIL A / STRUCTURE</text><circle cx="990" cy="227" r="56" fill="none" stroke="#FF56D9" stroke-width="4" opacity="0.85" /><line x1="1032" y1="269" x2="1080" y2="317" stroke="#FF56D9" stroke-width="4" opacity="1"/><text x="55" y="723" font-family="Arial, sans-serif" font-size="23" font-weight="750" fill="#C9FF3C" text-anchor="start" opacity="1.0" letter-spacing="0">Cyber, Techno, and Y2K Futurism</text><text x="1145" y="723" font-family="Courier New, monospace" font-size="12" font-weight="700" fill="#C9FF3C" text-anchor="end" opacity="0.72" letter-spacing="1.2">REPRESENTATIVE RECONSTRUCTION</text></svg>