<svg xmlns="http://www.w3.org/2000/svg" viewBox="0 0 1200 750" role="img" aria-labelledby="title desc"><title id="title">Experimental Flash and Immersive Multimedia representative reconstruction</title><desc id="desc">Representative reconstruction of Experimental Flash and Immersive Multimedia, showing full-screen vector animation, custom cursors, sound-responsive interaction.</desc>
    <defs>
      <linearGradient id="gradA" x1="0" y1="0" x2="1" y2="1"><stop offset="0" stop-color="#645CFF"/><stop offset="1" stop-color="#FF3D8D"/></linearGradient>
      <linearGradient id="gradB" x1="1" y1="0" x2="0" y2="1"><stop offset="0" stop-color="#FF3D8D"/><stop offset="1" stop-color="#F5F8FF"/></linearGradient>
      <radialGradient id="radial"><stop offset="0" stop-color="#FF3D8D"/><stop offset="1" stop-color="#645CFF" stop-opacity="0"/></radialGradient>
      <filter id="shadowSoft"><feDropShadow dx="0" dy="15" stdDeviation="18" flood-color="#000000" flood-opacity="0.20"/></filter>
      <filter id="shadowHard"><feDropShadow dx="9" dy="9" stdDeviation="0" flood-color="#000000" flood-opacity="0.55"/></filter>
      <filter id="blur"><feGaussianBlur stdDeviation="18"/></filter>
      <filter id="noise"><feTurbulence type="fractalNoise" baseFrequency="0.8" numOctaves="3" seed="12"/><feColorMatrix type="saturate" values="0"/><feComponentTransfer><feFuncA type="table" tableValues="0 .18"/></feComponentTransfer></filter>
      <pattern id="grid" width="24" height="24" patternUnits="userSpaceOnUse"><path d="M 24 0 L 0 0 0 24" fill="none" stroke="#645CFF" stroke-opacity=".22" stroke-width="1"/></pattern>
      <pattern id="checker" width="20" height="20" patternUnits="userSpaceOnUse"><rect width="10" height="10" fill="#645CFF"/><rect x="10" y="10" width="10" height="10" fill="#645CFF"/><rect x="10" width="10" height="10" fill="#FF3D8D"/><rect y="10" width="10" height="10" fill="#FF3D8D"/></pattern>
      <clipPath id="screenClip"><rect x="70" y="110" width="1060" height="570" rx="18"/></clipPath>
    </defs>
    <rect x="0" y="0" width="1200" height="750" rx="0" fill="#0B1020" stroke="none" stroke-width="0" opacity="1.0" /><line x1="0" y1="0" x2="0" y2="750" stroke="#00E6FF" stroke-width="1" opacity="0.035"/><line x1="60" y1="0" x2="60" y2="750" stroke="#00E6FF" stroke-width="1" opacity="0.035"/><line x1="120" y1="0" x2="120" y2="750" stroke="#00E6FF" stroke-width="1" opacity="0.035"/><line x1="180" y1="0" x2="180" y2="750" stroke="#00E6FF" stroke-width="1" opacity="0.035"/><line x1="240" y1="0" x2="240" y2="750" stroke="#00E6FF" stroke-width="1" opacity="0.035"/><line x1="300" y1="0" x2="300" y2="750" stroke="#00E6FF" stroke-width="1" opacity="0.035"/><line x1="360" y1="0" x2="360" y2="750" stroke="#00E6FF" stroke-width="1" opacity="0.035"/><line x1="420" y1="0" x2="420" y2="750" stroke="#00E6FF" stroke-width="1" opacity="0.035"/><line x1="480" y1="0" x2="480" y2="750" stroke="#00E6FF" stroke-width="1" opacity="0.035"/><line x1="540" y1="0" x2="540" y2="750" stroke="#00E6FF" stroke-width="1" opacity="0.035"/><line x1="600" y1="0" x2="600" y2="750" stroke="#00E6FF" stroke-width="1" opacity="0.035"/><line x1="660" y1="0" x2="660" y2="750" stroke="#00E6FF" stroke-width="1" opacity="0.035"/><line x1="720" y1="0" x2="720" y2="750" stroke="#00E6FF" stroke-width="1" opacity="0.035"/><line x1="780" y1="0" x2="780" y2="750" stroke="#00E6FF" stroke-width="1" opacity="0.035"/><line x1="840" y1="0" x2="840" y2="750" stroke="#00E6FF" stroke-width="1" opacity="0.035"/><line x1="900" y1="0" x2="900" y2="750" stroke="#00E6FF" stroke-width="1" opacity="0.035"/><line x1="960" y1="0" x2="960" y2="750" stroke="#00E6FF" stroke-width="1" opacity="0.035"/><line x1="1020" y1="0" x2="1020" y2="750" stroke="#00E6FF" stroke-width="1" opacity="0.035"/><line x1="1080" y1="0" x2="1080" y2="750" stroke="#00E6FF" stroke-width="1" opacity="0.035"/><line x1="1140" y1="0" x2="1140" y2="750" stroke="#00E6FF" stroke-width="1" opacity="0.035"/><line x1="1200" y1="0" x2="1200" y2="750" stroke="#00E6FF" stroke-width="1" opacity="0.035"/><line x1="0" y1="0" x2="1200" y2="0" stroke="#00E6FF" stroke-width="1" opacity="0.035"/><line x1="0" y1="60" x2="1200" y2="60" stroke="#00E6FF" stroke-width="1" opacity="0.035"/><line x1="0" y1="120" x2="1200" y2="120" stroke="#00E6FF" stroke-width="1" opacity="0.035"/><line x1="0" y1="180" x2="1200" y2="180" stroke="#00E6FF" stroke-width="1" opacity="0.035"/><line x1="0" y1="240" x2="1200" y2="240" stroke="#00E6FF" stroke-width="1" opacity="0.035"/><line x1="0" y1="300" x2="1200" y2="300" stroke="#00E6FF" stroke-width="1" opacity="0.035"/><line x1="0" y1="360" x2="1200" y2="360" stroke="#00E6FF" stroke-width="1" opacity="0.035"/><line x1="0" y1="420" x2="1200" y2="420" stroke="#00E6FF" stroke-width="1" opacity="0.035"/><line x1="0" y1="480" x2="1200" y2="480" stroke="#00E6FF" stroke-width="1" opacity="0.035"/><line x1="0" y1="540" x2="1200" y2="540" stroke="#00E6FF" stroke-width="1" opacity="0.035"/><line x1="0" y1="600" x2="1200" y2="600" stroke="#00E6FF" stroke-width="1" opacity="0.035"/><line x1="0" y1="660" x2="1200" y2="660" stroke="#00E6FF" stroke-width="1" opacity="0.035"/><line x1="0" y1="720" x2="1200" y2="720" stroke="#00E6FF" stroke-width="1" opacity="0.035"/><text x="55" y="58" font-family="Courier New, monospace" font-size="18" font-weight="700" fill="#00E6FF" text-anchor="start" opacity="1.0" letter-spacing="1.5">WDTC–0012</text><text x="1145" y="58" font-family="Courier New, monospace" font-size="16" font-weight="600" fill="#00E6FF" text-anchor="end" opacity="1.0" letter-spacing="0">1998–2010</text><rect x="70" y="92" width="1060" height="590" rx="18" fill="#080A14" stroke="#00E6FF" stroke-width="2" opacity="1.0" filter="url(#shadowSoft)"/><rect x="70" y="92" width="1060" height="42" rx="18" fill="#00E6FF" stroke="#00E6FF" stroke-width="0" opacity="1.0" /><rect x="70" y="122" width="1060" height="12" rx="0" fill="#00E6FF" stroke="none" stroke-width="0" opacity="1.0" /><circle cx="94" cy="113" r="6" fill="#FF6B5E" stroke="none" stroke-width="0" opacity="1" /><circle cx="116" cy="113" r="6" fill="#F3C84B" stroke="none" stroke-width="0" opacity="1" /><circle cx="138" cy="113" r="6" fill="#45BE6F" stroke="none" stroke-width="0" opacity="1" /><rect x="180" y="104" width="900" height="18" rx="9" fill="#FFFFFF" stroke="none" stroke-width="0" opacity="0.65" /><rect x="88" y="150" width="1024" height="514" rx="0" fill="#030814" stroke="none" stroke-width="0" opacity="1.0" /><circle cx="926" cy="566" r="4" fill="#645CFF" stroke="none" stroke-width="0" opacity="0.7557643342157667" /><circle cx="273" cy="560" r="6" fill="#FF3D8D" stroke="none" stroke-width="0" opacity="0.5974081023695994" /><circle cx="553" cy="324" r="2" fill="#00E6FF" stroke="none" stroke-width="0" opacity="0.6416798514281283" /><circle cx="474" cy="375" r="6" fill="#00E6FF" stroke="none" stroke-width="0" opacity="0.8825922622920865" /><circle cx="531" cy="203" r="4" fill="#645CFF" stroke="none" stroke-width="0" opacity="0.40203829759807586" /><circle cx="364" cy="489" r="2" fill="#00E6FF" stroke="none" stroke-width="0" opacity="0.75312931739156" /><circle cx="586" cy="439" r="5" fill="#FF3D8D" stroke="none" stroke-width="0" opacity="0.677020149796728" /><circle cx="743" cy="441" r="2" fill="#00E6FF" stroke="none" stroke-width="0" opacity="0.7653593915501987" /><circle cx="563" cy="452" r="2" fill="#FF3D8D" stroke="none" stroke-width="0" opacity="0.8418966545662208" /><circle cx="144" cy="526" r="5" fill="#645CFF" stroke="none" stroke-width="0" opacity="0.9914141556992931" /><circle cx="804" cy="325" r="2" fill="#645CFF" stroke="none" stroke-width="0" opacity="0.6336473838167597" /><circle cx="333" cy="259" r="5" fill="#645CFF" stroke="none" stroke-width="0" opacity="0.7405045596685194" /><circle cx="640" cy="303" r="4" fill="#00E6FF" stroke="none" stroke-width="0" opacity="0.8206168980444185" /><circle cx="858" cy="190" r="3" fill="#645CFF" stroke="none" stroke-width="0" opacity="0.9452328674007712" /><circle cx="875" cy="481" r="6" fill="#FFF" stroke="none" stroke-width="0" opacity="0.8107625187408847" /><circle cx="1066" cy="566" r="5" fill="#00E6FF" stroke="none" stroke-width="0" opacity="0.9984372741757063" /><circle cx="667" cy="236" r="2" fill="#FF3D8D" stroke="none" stroke-width="0" opacity="0.5614196997417611" /><circle cx="190" cy="344" r="5" fill="#645CFF" stroke="none" stroke-width="0" opacity="0.9352796642393472" /><circle cx="485" cy="372" r="3" fill="#00E6FF" stroke="none" stroke-width="0" opacity="0.6433177369863828" /><circle cx="1036" cy="592" r="2" fill="#FFF" stroke="none" stroke-width="0" opacity="0.8784557337705167" /><circle cx="1009" cy="624" r="2" fill="#FF3D8D" stroke="none" stroke-width="0" opacity="0.7352089707686016" /><circle cx="456" cy="226" r="2" fill="#FFF" stroke="none" stroke-width="0" opacity="0.4826964253345484" /><circle cx="331" cy="607" r="5" fill="#FF3D8D" stroke="none" stroke-width="0" opacity="0.872859788094444" /><circle cx="193" cy="451" r="6" fill="#645CFF" stroke="none" stroke-width="0" opacity="0.8177462977063408" /><circle cx="164" cy="194" r="3" fill="#645CFF" stroke="none" stroke-width="0" opacity="0.7131994207878909" /><circle cx="253" cy="195" r="4" fill="#645CFF" stroke="none" stroke-width="0" opacity="0.8462186750638793" /><circle cx="161" cy="614" r="4" fill="#00E6FF" stroke="none" stroke-width="0" opacity="0.7445606143069305" /><circle cx="555" cy="270" r="4" fill="#645CFF" stroke="none" stroke-width="0" opacity="0.9568570872200375" /><circle cx="640" cy="518" r="3" fill="#645CFF" stroke="none" stroke-width="0" opacity="0.9677350264091115" /><circle cx="405" cy="590" r="2" fill="#FFF" stroke="none" stroke-width="0" opacity="0.9296140291544671" /><circle cx="517" cy="491" r="3" fill="#FF3D8D" stroke="none" stroke-width="0" opacity="0.7190024419741421" /><circle cx="551" cy="414" r="3" fill="#FF3D8D" stroke="none" stroke-width="0" opacity="0.9256365614033226" /><circle cx="683" cy="588" r="5" fill="#FFF" stroke="none" stroke-width="0" opacity="0.48438046467883994" /><circle cx="738" cy="249" r="3" fill="#00E6FF" stroke="none" stroke-width="0" opacity="0.6949943079927494" /><circle cx="410" cy="606" r="4" fill="#FFF" stroke="none" stroke-width="0" opacity="0.917261548715258" /><circle cx="718" cy="274" r="6" fill="#FF3D8D" stroke="none" stroke-width="0" opacity="0.8801885596537343" /><line x1="248" y1="300" x2="858" y2="540" stroke="#645CFF" stroke-width="2" opacity="0.45"/><circle cx="248" cy="300" r="38" fill="#101C3C" stroke="#00E6FF" stroke-width="3" opacity="1" /><text x="248" y="306" font-family="Courier New, monospace" font-size="17" font-weight="700" fill="#FFF" text-anchor="middle" opacity="1.0" letter-spacing="0">01</text><circle cx="538" cy="255" r="38" fill="#101C3C" stroke="#00E6FF" stroke-width="3" opacity="1" /><text x="538" y="261" font-family="Courier New, monospace" font-size="17" font-weight="700" fill="#FFF" text-anchor="middle" opacity="1.0" letter-spacing="0">02</text><line x1="838" y1="340" x2="468" y2="490" stroke="#645CFF" stroke-width="2" opacity="0.45"/><line x1="838" y1="340" x2="858" y2="540" stroke="#645CFF" stroke-width="2" opacity="0.45"/><circle cx="838" cy="340" r="38" fill="#101C3C" stroke="#00E6FF" stroke-width="3" opacity="1" /><text x="838" y="346" font-family="Courier New, monospace" font-size="17" font-weight="700" fill="#FFF" text-anchor="middle" opacity="1.0" letter-spacing="0">03</text><line x1="468" y1="490" x2="858" y2="540" stroke="#645CFF" stroke-width="2" opacity="0.45"/><circle cx="468" cy="490" r="38" fill="#101C3C" stroke="#00E6FF" stroke-width="3" opacity="1" /><text x="468" y="496" font-family="Courier New, monospace" font-size="17" font-weight="700" fill="#FFF" text-anchor="middle" opacity="1.0" letter-spacing="0">04</text><circle cx="858" cy="540" r="38" fill="#101C3C" stroke="#00E6FF" stroke-width="3" opacity="1" /><text x="858" y="546" font-family="Courier New, monospace" font-size="17" font-weight="700" fill="#FFF" text-anchor="middle" opacity="1.0" letter-spacing="0">05</text><text x="600.0" y="626" font-family="Courier New, monospace" font-size="20" font-weight="700" fill="#FFF" text-anchor="middle" opacity="1.0" letter-spacing="3">MOVE THROUGH THE EXPERIENCE</text><text x="55" y="723" font-family="Arial, sans-serif" font-size="23" font-weight="750" fill="#00E6FF" text-anchor="start" opacity="1.0" letter-spacing="0">Experimental Flash and Immersive Multimedia</text><text x="1145" y="723" font-family="Courier New, monospace" font-size="12" font-weight="700" fill="#00E6FF" text-anchor="end" opacity="0.72" letter-spacing="1.2">REPRESENTATIVE RECONSTRUCTION</text></svg>