<svg xmlns="http://www.w3.org/2000/svg" viewBox="0 0 1200 750" role="img" aria-labelledby="title desc"><title id="title">No-Code and Template-Led Design representative reconstruction</title><desc id="desc">Representative reconstruction of No-Code and Template-Led Design, showing modular page sections, large hero blocks, preset typography scales.</desc>
    <defs>
      <linearGradient id="gradA" x1="0" y1="0" x2="1" y2="1"><stop offset="0" stop-color="#2D8A57"/><stop offset="1" stop-color="#E6B74A"/></linearGradient>
      <linearGradient id="gradB" x1="1" y1="0" x2="0" y2="1"><stop offset="0" stop-color="#E6B74A"/><stop offset="1" stop-color="#15201B"/></linearGradient>
      <radialGradient id="radial"><stop offset="0" stop-color="#E6B74A"/><stop offset="1" stop-color="#2D8A57" stop-opacity="0"/></radialGradient>
      <filter id="shadowSoft"><feDropShadow dx="0" dy="15" stdDeviation="18" flood-color="#000000" flood-opacity="0.20"/></filter>
      <filter id="shadowHard"><feDropShadow dx="9" dy="9" stdDeviation="0" flood-color="#000000" flood-opacity="0.55"/></filter>
      <filter id="blur"><feGaussianBlur stdDeviation="18"/></filter>
      <filter id="noise"><feTurbulence type="fractalNoise" baseFrequency="0.8" numOctaves="3" seed="63"/><feColorMatrix type="saturate" values="0"/><feComponentTransfer><feFuncA type="table" tableValues="0 .18"/></feComponentTransfer></filter>
      <pattern id="grid" width="24" height="24" patternUnits="userSpaceOnUse"><path d="M 24 0 L 0 0 0 24" fill="none" stroke="#2D8A57" stroke-opacity=".22" stroke-width="1"/></pattern>
      <pattern id="checker" width="20" height="20" patternUnits="userSpaceOnUse"><rect width="10" height="10" fill="#2D8A57"/><rect x="10" y="10" width="10" height="10" fill="#2D8A57"/><rect x="10" width="10" height="10" fill="#E6B74A"/><rect y="10" width="10" height="10" fill="#E6B74A"/></pattern>
      <clipPath id="screenClip"><rect x="70" y="110" width="1060" height="570" rx="18"/></clipPath>
    </defs>
    <rect x="0" y="0" width="1200" height="750" rx="0" fill="#EFF3EE" stroke="none" stroke-width="0" opacity="1.0" /><line x1="0" y1="0" x2="0" y2="750" stroke="#12382B" stroke-width="1" opacity="0.035"/><line x1="60" y1="0" x2="60" y2="750" stroke="#12382B" stroke-width="1" opacity="0.035"/><line x1="120" y1="0" x2="120" y2="750" stroke="#12382B" stroke-width="1" opacity="0.035"/><line x1="180" y1="0" x2="180" y2="750" stroke="#12382B" stroke-width="1" opacity="0.035"/><line x1="240" y1="0" x2="240" y2="750" stroke="#12382B" stroke-width="1" opacity="0.035"/><line x1="300" y1="0" x2="300" y2="750" stroke="#12382B" stroke-width="1" opacity="0.035"/><line x1="360" y1="0" x2="360" y2="750" stroke="#12382B" stroke-width="1" opacity="0.035"/><line x1="420" y1="0" x2="420" y2="750" stroke="#12382B" stroke-width="1" opacity="0.035"/><line x1="480" y1="0" x2="480" y2="750" stroke="#12382B" stroke-width="1" opacity="0.035"/><line x1="540" y1="0" x2="540" y2="750" stroke="#12382B" stroke-width="1" opacity="0.035"/><line x1="600" y1="0" x2="600" y2="750" stroke="#12382B" stroke-width="1" opacity="0.035"/><line x1="660" y1="0" x2="660" y2="750" stroke="#12382B" stroke-width="1" opacity="0.035"/><line x1="720" y1="0" x2="720" y2="750" stroke="#12382B" stroke-width="1" opacity="0.035"/><line x1="780" y1="0" x2="780" y2="750" stroke="#12382B" stroke-width="1" opacity="0.035"/><line x1="840" y1="0" x2="840" y2="750" stroke="#12382B" stroke-width="1" opacity="0.035"/><line x1="900" y1="0" x2="900" y2="750" stroke="#12382B" stroke-width="1" opacity="0.035"/><line x1="960" y1="0" x2="960" y2="750" stroke="#12382B" stroke-width="1" opacity="0.035"/><line x1="1020" y1="0" x2="1020" y2="750" stroke="#12382B" stroke-width="1" opacity="0.035"/><line x1="1080" y1="0" x2="1080" y2="750" stroke="#12382B" stroke-width="1" opacity="0.035"/><line x1="1140" y1="0" x2="1140" y2="750" stroke="#12382B" stroke-width="1" opacity="0.035"/><line x1="1200" y1="0" x2="1200" y2="750" stroke="#12382B" stroke-width="1" opacity="0.035"/><line x1="0" y1="0" x2="1200" y2="0" stroke="#12382B" stroke-width="1" opacity="0.035"/><line x1="0" y1="60" x2="1200" y2="60" stroke="#12382B" stroke-width="1" opacity="0.035"/><line x1="0" y1="120" x2="1200" y2="120" stroke="#12382B" stroke-width="1" opacity="0.035"/><line x1="0" y1="180" x2="1200" y2="180" stroke="#12382B" stroke-width="1" opacity="0.035"/><line x1="0" y1="240" x2="1200" y2="240" stroke="#12382B" stroke-width="1" opacity="0.035"/><line x1="0" y1="300" x2="1200" y2="300" stroke="#12382B" stroke-width="1" opacity="0.035"/><line x1="0" y1="360" x2="1200" y2="360" stroke="#12382B" stroke-width="1" opacity="0.035"/><line x1="0" y1="420" x2="1200" y2="420" stroke="#12382B" stroke-width="1" opacity="0.035"/><line x1="0" y1="480" x2="1200" y2="480" stroke="#12382B" stroke-width="1" opacity="0.035"/><line x1="0" y1="540" x2="1200" y2="540" stroke="#12382B" stroke-width="1" opacity="0.035"/><line x1="0" y1="600" x2="1200" y2="600" stroke="#12382B" stroke-width="1" opacity="0.035"/><line x1="0" y1="660" x2="1200" y2="660" stroke="#12382B" stroke-width="1" opacity="0.035"/><line x1="0" y1="720" x2="1200" y2="720" stroke="#12382B" stroke-width="1" opacity="0.035"/><text x="55" y="58" font-family="Courier New, monospace" font-size="18" font-weight="700" fill="#12382B" text-anchor="start" opacity="1.0" letter-spacing="1.5">WDTC–0063</text><text x="1145" y="58" font-family="Courier New, monospace" font-size="16" font-weight="600" fill="#12382B" text-anchor="end" opacity="1.0" letter-spacing="0">2018–present</text><rect x="70" y="92" width="1060" height="590" rx="18" fill="#FFFFFF" stroke="#12382B" stroke-width="2" opacity="1.0" filter="url(#shadowSoft)"/><rect x="70" y="92" width="1060" height="42" rx="18" fill="#12382B" stroke="#12382B" stroke-width="0" opacity="1.0" /><rect x="70" y="122" width="1060" height="12" rx="0" fill="#12382B" stroke="none" stroke-width="0" opacity="1.0" /><circle cx="94" cy="113" r="6" fill="#FF6B5E" stroke="none" stroke-width="0" opacity="1" /><circle cx="116" cy="113" r="6" fill="#F3C84B" stroke="none" stroke-width="0" opacity="1" /><circle cx="138" cy="113" r="6" fill="#45BE6F" stroke="none" stroke-width="0" opacity="1" /><rect x="180" y="104" width="900" height="18" rx="9" fill="#FFFFFF" stroke="none" stroke-width="0" opacity="0.65" /><rect x="88" y="150" width="1024" height="514" rx="0" fill="#F6F6FA" stroke="none" stroke-width="0" opacity="1.0" /><rect x="88" y="150" width="210" height="514" rx="0" fill="#20212A" stroke="none" stroke-width="0" opacity="1.0" /><text x="113" y="195" font-family="Courier New, monospace" font-size="16" font-weight="700" fill="#FFF" text-anchor="start" opacity="1.0" letter-spacing="0">BLOCKS</text><rect x="108" y="225" width="170" height="36" rx="5" fill="#333642" stroke="#505361" stroke-width="1" opacity="1.0" /><text x="123" y="249" font-family="Arial, sans-serif" font-size="13" font-weight="600" fill="#FFF" text-anchor="start" opacity="1.0" letter-spacing="0">Hero</text><rect x="108" y="275" width="170" height="36" rx="5" fill="#333642" stroke="#505361" stroke-width="1" opacity="1.0" /><text x="123" y="299" font-family="Arial, sans-serif" font-size="13" font-weight="600" fill="#FFF" text-anchor="start" opacity="1.0" letter-spacing="0">Logo strip</text><rect x="108" y="325" width="170" height="36" rx="5" fill="#333642" stroke="#505361" stroke-width="1" opacity="1.0" /><text x="123" y="349" font-family="Arial, sans-serif" font-size="13" font-weight="600" fill="#FFF" text-anchor="start" opacity="1.0" letter-spacing="0">Features</text><rect x="108" y="375" width="170" height="36" rx="5" fill="#333642" stroke="#505361" stroke-width="1" opacity="1.0" /><text x="123" y="399" font-family="Arial, sans-serif" font-size="13" font-weight="600" fill="#FFF" text-anchor="start" opacity="1.0" letter-spacing="0">Testimonials</text><rect x="108" y="425" width="170" height="36" rx="5" fill="#333642" stroke="#505361" stroke-width="1" opacity="1.0" /><text x="123" y="449" font-family="Arial, sans-serif" font-size="13" font-weight="600" fill="#FFF" text-anchor="start" opacity="1.0" letter-spacing="0">Pricing</text><rect x="108" y="475" width="170" height="36" rx="5" fill="#333642" stroke="#505361" stroke-width="1" opacity="1.0" /><text x="123" y="499" font-family="Arial, sans-serif" font-size="13" font-weight="600" fill="#FFF" text-anchor="start" opacity="1.0" letter-spacing="0">FAQ</text><rect x="108" y="525" width="170" height="36" rx="5" fill="#333642" stroke="#505361" stroke-width="1" opacity="1.0" /><text x="123" y="549" font-family="Arial, sans-serif" font-size="13" font-weight="600" fill="#FFF" text-anchor="start" opacity="1.0" letter-spacing="0">Footer</text><rect x="323" y="178" width="710" height="420" rx="8" fill="#FFF" stroke="#D7D8E0" stroke-width="1" opacity="1.0" filter="url(#shadowSoft)"/><rect x="353" y="210" width="650" height="105" rx="8" fill="url(#gradA)" stroke="none" stroke-width="0" opacity="1.0" /><text x="678" y="265" font-family="Arial, sans-serif" font-size="31" font-weight="800" fill="#FFF" text-anchor="middle" opacity="1.0" letter-spacing="0">BUILD VISUALLY</text><rect x="353" y="335" width="210" height="105" rx="8" fill="#F3F4F8" stroke="#D7D8E0" stroke-width="1" opacity="1.0" /><circle cx="388" cy="370" r="18" fill="#3D4CFF" stroke="none" stroke-width="0" opacity="1" /><rect x="573" y="335" width="210" height="105" rx="8" fill="#F3F4F8" stroke="#D7D8E0" stroke-width="1" opacity="1.0" /><circle cx="608" cy="370" r="18" fill="#FF6B5E" stroke="none" stroke-width="0" opacity="1" /><rect x="793" y="335" width="210" height="105" rx="8" fill="#F3F4F8" stroke="#D7D8E0" stroke-width="1" opacity="1.0" /><circle cx="828" cy="370" r="18" fill="#C8FF53" stroke="none" stroke-width="0" opacity="1" /><rect x="353" y="460" width="650" height="100" rx="8" fill="#F3F4F8" stroke="#D7D8E0" stroke-width="1" opacity="1.0" /><line x1="318" y1="330" x2="1038" y2="330" stroke="#3D4CFF" stroke-width="2" opacity="0.65" stroke-dasharray="7 5"/><rect x="88" y="622" width="310" height="38" rx="2" fill="#EFF3EE" stroke="#12382B" stroke-width="2" opacity="0.96" /><text x="105" y="647" font-family="Courier New, monospace" font-size="13" font-weight="700" fill="#12382B" text-anchor="start" opacity="1.0" letter-spacing="1.2">DETAIL A / STRUCTURE</text><circle cx="990" cy="227" r="56" fill="none" stroke="#E6B74A" stroke-width="4" opacity="0.85" /><line x1="1032" y1="269" x2="1080" y2="317" stroke="#E6B74A" stroke-width="4" opacity="1"/><text x="55" y="723" font-family="Arial, sans-serif" font-size="23" font-weight="750" fill="#12382B" text-anchor="start" opacity="1.0" letter-spacing="0">No-Code and Template-Led Design</text><text x="1145" y="723" font-family="Courier New, monospace" font-size="12" font-weight="700" fill="#12382B" text-anchor="end" opacity="0.72" letter-spacing="1.2">REPRESENTATIVE RECONSTRUCTION</text></svg>