<svg xmlns="http://www.w3.org/2000/svg" viewBox="0 0 1200 750" role="img" aria-labelledby="title desc"><title id="title">Skeuomorphism representative reconstruction</title><desc id="desc">Representative reconstruction of Skeuomorphism, showing realistic leather, metal, paper, wood, and fabric, buttons resembling physical switches, notebooks with page edges and binding.</desc>
    <defs>
      <linearGradient id="gradA" x1="0" y1="0" x2="1" y2="1"><stop offset="0" stop-color="#FF7A00"/><stop offset="1" stop-color="#A6E43F"/></linearGradient>
      <linearGradient id="gradB" x1="1" y1="0" x2="0" y2="1"><stop offset="0" stop-color="#A6E43F"/><stop offset="1" stop-color="#182335"/></linearGradient>
      <radialGradient id="radial"><stop offset="0" stop-color="#A6E43F"/><stop offset="1" stop-color="#FF7A00" stop-opacity="0"/></radialGradient>
      <filter id="shadowSoft"><feDropShadow dx="0" dy="15" stdDeviation="18" flood-color="#000000" flood-opacity="0.20"/></filter>
      <filter id="shadowHard"><feDropShadow dx="9" dy="9" stdDeviation="0" flood-color="#000000" flood-opacity="0.55"/></filter>
      <filter id="blur"><feGaussianBlur stdDeviation="18"/></filter>
      <filter id="noise"><feTurbulence type="fractalNoise" baseFrequency="0.8" numOctaves="3" seed="20"/><feColorMatrix type="saturate" values="0"/><feComponentTransfer><feFuncA type="table" tableValues="0 .18"/></feComponentTransfer></filter>
      <pattern id="grid" width="24" height="24" patternUnits="userSpaceOnUse"><path d="M 24 0 L 0 0 0 24" fill="none" stroke="#FF7A00" stroke-opacity=".22" stroke-width="1"/></pattern>
      <pattern id="checker" width="20" height="20" patternUnits="userSpaceOnUse"><rect width="10" height="10" fill="#FF7A00"/><rect x="10" y="10" width="10" height="10" fill="#FF7A00"/><rect x="10" width="10" height="10" fill="#A6E43F"/><rect y="10" width="10" height="10" fill="#A6E43F"/></pattern>
      <clipPath id="screenClip"><rect x="70" y="110" width="1060" height="570" rx="18"/></clipPath>
    </defs>
    <rect x="0" y="0" width="1200" height="750" rx="0" fill="#EAF5FF" stroke="none" stroke-width="0" opacity="1.0" /><line x1="0" y1="0" x2="0" y2="750" stroke="#1B74E4" stroke-width="1" opacity="0.035"/><line x1="60" y1="0" x2="60" y2="750" stroke="#1B74E4" stroke-width="1" opacity="0.035"/><line x1="120" y1="0" x2="120" y2="750" stroke="#1B74E4" stroke-width="1" opacity="0.035"/><line x1="180" y1="0" x2="180" y2="750" stroke="#1B74E4" stroke-width="1" opacity="0.035"/><line x1="240" y1="0" x2="240" y2="750" stroke="#1B74E4" stroke-width="1" opacity="0.035"/><line x1="300" y1="0" x2="300" y2="750" stroke="#1B74E4" stroke-width="1" opacity="0.035"/><line x1="360" y1="0" x2="360" y2="750" stroke="#1B74E4" stroke-width="1" opacity="0.035"/><line x1="420" y1="0" x2="420" y2="750" stroke="#1B74E4" stroke-width="1" opacity="0.035"/><line x1="480" y1="0" x2="480" y2="750" stroke="#1B74E4" stroke-width="1" opacity="0.035"/><line x1="540" y1="0" x2="540" y2="750" stroke="#1B74E4" stroke-width="1" opacity="0.035"/><line x1="600" y1="0" x2="600" y2="750" stroke="#1B74E4" stroke-width="1" opacity="0.035"/><line x1="660" y1="0" x2="660" y2="750" stroke="#1B74E4" stroke-width="1" opacity="0.035"/><line x1="720" y1="0" x2="720" y2="750" stroke="#1B74E4" stroke-width="1" opacity="0.035"/><line x1="780" y1="0" x2="780" y2="750" stroke="#1B74E4" stroke-width="1" opacity="0.035"/><line x1="840" y1="0" x2="840" y2="750" stroke="#1B74E4" stroke-width="1" opacity="0.035"/><line x1="900" y1="0" x2="900" y2="750" stroke="#1B74E4" stroke-width="1" opacity="0.035"/><line x1="960" y1="0" x2="960" y2="750" stroke="#1B74E4" stroke-width="1" opacity="0.035"/><line x1="1020" y1="0" x2="1020" y2="750" stroke="#1B74E4" stroke-width="1" opacity="0.035"/><line x1="1080" y1="0" x2="1080" y2="750" stroke="#1B74E4" stroke-width="1" opacity="0.035"/><line x1="1140" y1="0" x2="1140" y2="750" stroke="#1B74E4" stroke-width="1" opacity="0.035"/><line x1="1200" y1="0" x2="1200" y2="750" stroke="#1B74E4" stroke-width="1" opacity="0.035"/><line x1="0" y1="0" x2="1200" y2="0" stroke="#1B74E4" stroke-width="1" opacity="0.035"/><line x1="0" y1="60" x2="1200" y2="60" stroke="#1B74E4" stroke-width="1" opacity="0.035"/><line x1="0" y1="120" x2="1200" y2="120" stroke="#1B74E4" stroke-width="1" opacity="0.035"/><line x1="0" y1="180" x2="1200" y2="180" stroke="#1B74E4" stroke-width="1" opacity="0.035"/><line x1="0" y1="240" x2="1200" y2="240" stroke="#1B74E4" stroke-width="1" opacity="0.035"/><line x1="0" y1="300" x2="1200" y2="300" stroke="#1B74E4" stroke-width="1" opacity="0.035"/><line x1="0" y1="360" x2="1200" y2="360" stroke="#1B74E4" stroke-width="1" opacity="0.035"/><line x1="0" y1="420" x2="1200" y2="420" stroke="#1B74E4" stroke-width="1" opacity="0.035"/><line x1="0" y1="480" x2="1200" y2="480" stroke="#1B74E4" stroke-width="1" opacity="0.035"/><line x1="0" y1="540" x2="1200" y2="540" stroke="#1B74E4" stroke-width="1" opacity="0.035"/><line x1="0" y1="600" x2="1200" y2="600" stroke="#1B74E4" stroke-width="1" opacity="0.035"/><line x1="0" y1="660" x2="1200" y2="660" stroke="#1B74E4" stroke-width="1" opacity="0.035"/><line x1="0" y1="720" x2="1200" y2="720" stroke="#1B74E4" stroke-width="1" opacity="0.035"/><text x="55" y="58" font-family="Courier New, monospace" font-size="18" font-weight="700" fill="#1B74E4" text-anchor="start" opacity="1.0" letter-spacing="1.5">WDTC–0020</text><text x="1145" y="58" font-family="Courier New, monospace" font-size="16" font-weight="600" fill="#1B74E4" text-anchor="end" opacity="1.0" letter-spacing="0">2007–2013</text><rect x="70" y="92" width="1060" height="590" rx="18" fill="#FFFFFF" stroke="#1B74E4" stroke-width="2" opacity="1.0" filter="url(#shadowSoft)"/><rect x="70" y="92" width="1060" height="42" rx="18" fill="#1B74E4" stroke="#1B74E4" stroke-width="0" opacity="1.0" /><rect x="70" y="122" width="1060" height="12" rx="0" fill="#1B74E4" stroke="none" stroke-width="0" opacity="1.0" /><circle cx="94" cy="113" r="6" fill="#FF6B5E" stroke="none" stroke-width="0" opacity="1" /><circle cx="116" cy="113" r="6" fill="#F3C84B" stroke="none" stroke-width="0" opacity="1" /><circle cx="138" cy="113" r="6" fill="#45BE6F" stroke="none" stroke-width="0" opacity="1" /><rect x="180" y="104" width="900" height="18" rx="9" fill="#FFFFFF" stroke="none" stroke-width="0" opacity="0.65" /><rect x="88" y="150" width="1024" height="514" rx="0" fill="#5A3827" stroke="none" stroke-width="0" opacity="1.0" /><rect x="88" y="150" width="1024" height="514" rx="0" fill="#000" stroke="none" stroke-width="0" opacity="0.22" filter="url(#noise)"/><rect x="143" y="185" width="914" height="444" rx="10" fill="#F3E8C7" stroke="#3A261B" stroke-width="4" opacity="1.0" filter="url(#shadowSoft)"/><circle cx="183" cy="238" r="8" fill="#4B3020" stroke="none" stroke-width="0" opacity="1" /><circle cx="183" cy="286" r="8" fill="#4B3020" stroke="none" stroke-width="0" opacity="1" /><circle cx="183" cy="334" r="8" fill="#4B3020" stroke="none" stroke-width="0" opacity="1" /><circle cx="183" cy="382" r="8" fill="#4B3020" stroke="none" stroke-width="0" opacity="1" /><circle cx="183" cy="430" r="8" fill="#4B3020" stroke="none" stroke-width="0" opacity="1" /><circle cx="183" cy="478" r="8" fill="#4B3020" stroke="none" stroke-width="0" opacity="1" /><circle cx="183" cy="526" r="8" fill="#4B3020" stroke="none" stroke-width="0" opacity="1" /><circle cx="183" cy="574" r="8" fill="#4B3020" stroke="none" stroke-width="0" opacity="1" /><text x="228" y="255" font-family="Georgia, serif" font-size="30" font-weight="700" fill="#3B2B20" text-anchor="start" opacity="1.0" letter-spacing="0">MY NOTEBOOK</text><line x1="228" y1="295" x2="1012" y2="295" stroke="#B7A77C" stroke-width="1" opacity="1"/><line x1="228" y1="327" x2="1012" y2="327" stroke="#B7A77C" stroke-width="1" opacity="1"/><line x1="228" y1="359" x2="1012" y2="359" stroke="#B7A77C" stroke-width="1" opacity="1"/><line x1="228" y1="391" x2="1012" y2="391" stroke="#B7A77C" stroke-width="1" opacity="1"/><line x1="228" y1="423" x2="1012" y2="423" stroke="#B7A77C" stroke-width="1" opacity="1"/><line x1="228" y1="455" x2="1012" y2="455" stroke="#B7A77C" stroke-width="1" opacity="1"/><line x1="228" y1="487" x2="1012" y2="487" stroke="#B7A77C" stroke-width="1" opacity="1"/><line x1="228" y1="519" x2="1012" y2="519" stroke="#B7A77C" stroke-width="1" opacity="1"/><line x1="228" y1="551" x2="1012" y2="551" stroke="#B7A77C" stroke-width="1" opacity="1"/><rect x="778" y="325" width="200" height="95" rx="8" fill="#C8A96A" stroke="#6B4B22" stroke-width="4" opacity="1.0" filter="url(#shadowSoft)"/><text x="878" y="380" font-family="Georgia, serif" font-size="18" font-weight="700" fill="#3B2B20" text-anchor="middle" opacity="1.0" letter-spacing="0">OPEN FILE</text><circle cx="853" cy="495" r="48" fill="#9EAAA8" stroke="#3C4544" stroke-width="4" opacity="1" filter="url(#shadowSoft)"/><circle cx="853" cy="495" r="18" fill="#4B5858" stroke="none" stroke-width="0" opacity="1" /><rect x="88" y="622" width="310" height="38" rx="2" fill="#EAF5FF" stroke="#1B74E4" stroke-width="2" opacity="0.96" /><text x="105" y="647" font-family="Courier New, monospace" font-size="13" font-weight="700" fill="#1B74E4" text-anchor="start" opacity="1.0" letter-spacing="1.2">DETAIL B / SURFACE</text><circle cx="210" cy="547" r="56" fill="none" stroke="#A6E43F" stroke-width="4" opacity="0.85" /><line x1="252" y1="589" x2="300" y2="637" stroke="#A6E43F" stroke-width="4" opacity="1"/><text x="55" y="723" font-family="Arial, sans-serif" font-size="23" font-weight="750" fill="#1B74E4" text-anchor="start" opacity="1.0" letter-spacing="0">Skeuomorphism</text><text x="1145" y="723" font-family="Courier New, monospace" font-size="12" font-weight="700" fill="#1B74E4" text-anchor="end" opacity="0.72" letter-spacing="1.2">REPRESENTATIVE RECONSTRUCTION</text></svg>